<svg width="800px" height="800px" viewBox="0 0 36 36" xmlns="http://www.w3.org/2000/svg" aria-hidden="true" role="img" preserveAspectRatio="xMidYMid meet">
<path fill="#006C35" d="M32 5H4a4 4 0 0 0-4 4v18a4 4 0 0 0 4 4h28a4 4 0 0 0 4-4V9a4 4 0 0 0-4-4z"></path>
<g fill="#FFF">
<path d="M8.919 14.05c.632.06.283-1.069.512-1.274c.043-.101.123-.102.129.026v.958c-.006.312.199.403.358.468c.166-.013.276-.007.341.154l.078 1.658s.384.11.402-.933c.019-.612-.122-1.124-.039-1.243c.003-.117.152-.124.256-.067c.165.116.239.26.495.203c.391-.107.625-.297.631-.597c-.023-.285-.055-.57-.178-.855c.017-.052-.075-.186-.058-.238c.07.11.177.101.201 0c-.066-.219-.169-.429-.337-.52c-.138-.122-.34-.097-.414.157c-.034.292.106.64.318.923c.045.111.109.295.081.461c-.113.064-.227.038-.321-.062c0 0-.311-.233-.311-.285c.083-.528.019-.588-.027-.734c-.032-.202-.128-.267-.206-.405c-.078-.082-.183-.082-.233 0c-.138.238-.074.75.026.979c.071.21.181.343.129.343c-.043.119-.131.091-.195-.046c-.092-.284-.11-.707-.11-.898c-.028-.236-.058-.741-.213-.869c-.095-.129-.236-.067-.285.052c-.01.234-.012.469.015.686c.106.379.14.713.192 1.102c.014.521-.301.226-.287-.032c.073-.335.054-.863-.011-.997c-.051-.133-.112-.167-.236-.145c-.098-.008-.352.27-.424.73c0 0-.061.237-.087.448c-.035.238-.191.406-.301-.033c-.095-.319-.153-1.106-.312-.922c-.046.615-.101 1.697.421 1.807z"></path>
<path d="M9.87 14.499c-.52.01-1.281.683-1.302 1.056c.548-.264 1.087-.518 1.645-.79c-.09-.135-.005-.256-.343-.266z"></path>
<path d="M12.737 16.516c.241-.803-.039-1.395.092-1.392c.277.299.665.04.75-.064c.037-.052.128-.086.192-.018c.217.156.599.082.678-.192a6.03 6.03 0 0 0 .092-.833c-.177.055-.309.092-.321.165l-.037.238c-.015.077-.168.08-.174-.018c-.067-.305-.345-.345-.513.128c-.113.092-.317.11-.339-.027c.027-.317-.101-.36-.357-.211c-.082-.629-.165-1.23-.247-1.859c.107-.003.205.076.302-.046c-.107-.333-.333-1.013-.458-1.062c-.061-.074-.113-.028-.192-.009c-.134.043-.259.159-.22.384c.159.965.263 1.7.421 2.665c.024.113-.07.262-.192.247c-.207-.14-.259-.424-.613-.412c-.257.003-.55.281-.586.55c-.043.213-.058.445 0 .632c.18.216.397.195.586.146c.155-.064.284-.22.338-.183c.037.045.009.558-.732.952c-.449.201-.806.247-.998-.119c-.119-.229.009-1.099-.284-.897c-.867 2.235 2.03 2.545 2.354.092c.031-.101.153-.202.174-.037c-.067 2.222-2.241 2.375-2.61 1.676c-.092-.165-.119-.531-.128-.751c-.055-.437-.284-.269-.32.164c-.037.241-.027.309-.027.54c.115 1.755 2.915 1.001 3.369-.449zm-1.08-1.518c-.018.034-.097.02-.155.02c-.066-.003-.097-.014-.137-.067c-.018-.06.038-.117.063-.162c.031-.053.198-.108.257.04a.168.168 0 0 1-.028.169z"></path>
<path d="M25.5 23H24v-.5a.5.5 0 0 0-1 0v.5H11s0 1 3 1h9v.5a.5.5 0 0 0 1 0V24h1v.5a.5.5 0 0 0 1 0v-1a.5.5 0 0 0-.5-.5z"></path>
</g>
</svg>


